<?xml version="1.0" encoding="utf-8"?><!-- Generator: Adobe Illustrator 18.1.1, SVG Export Plug-In . SVG Version: 6.00 Build 0)  --><svg xmlns="http://www.w3.org/2000/svg" xmlns:xlink="http://www.w3.org/1999/xlink" viewBox="0 0 24 24" width="30px" height="30px"><g><path fill="none" stroke="#000000" stroke-width="2" stroke-miterlimit="10" d="M12,9c-5,0-9,2.7-9,6c0,3.3,4,6,9,6s9-2.7,9-6C21,11.7,17,9,12,9L12,9z"/></g><circle cx="9" cy="13.5" r="1.5"/><circle cx="15" cy="13.5" r="1.5"/><path d="M12,17.7c-1.7,0-3.2-0.5-4.1-1.2C8.4,17.8,10,19,12,19c2,0,3.6-1.2,4.1-2.6C15.2,17.2,13.7,17.7,12,17.7z"/><path fill="none" stroke="#000000" stroke-miterlimit="10" d="M18.7,10.2c1-0.9,2.5-0.9,3.3,0c0.8,0.9,0.7,2.6-0.5,3.5"/><path fill="none" stroke="#000000" stroke-miterlimit="10" d="M2.5,13.7c-1.2-0.8-1.3-2.5-0.5-3.5c0.8-0.9,2.3-0.9,3.3,0"/><g><path d="M20,4c0.6,0,1,0.4,1,1s-0.4,1-1,1s-1-0.4-1-1S19.4,4,20,4 M20,3c-1.1,0-2,0.9-2,2s0.9,2,2,2s2-0.9,2-2S21.1,3,20,3L20,3z"/></g><path fill="none" stroke="#000000" stroke-width="2" stroke-miterlimit="10" d="M12,9V6c0-1.1,0.8-2,2-2s2.2,1,4.7,1"/></svg>